<mxfile host="app.diagrams.net" modified="2024-05-26T14:58:54.793Z" agent="Mozilla/5.0 (Windows NT 10.0; Win64; x64; rv:109.0) Gecko/20100101 Firefox/119.0" version="24.4.8" etag="uEhL5_VPpq-7-xSnSLaw" type="github">
  <diagram name="Page-1" id="okCdv0SqWxHL-uYxacqT">
    <mxGraphModel>
      <root>
        <mxCell id="0" />
        <mxCell id="1" parent="0" />
      </root>
    </mxGraphModel>
  </diagram>
</mxfile>
